PathFileType	4	(x/y/z)	S02_PSF_T02
DataRate	CameraRate	NumFrames	NumMarkers	Units	OrigDataRate	OrigDataStartFrame	OrigNumFrames
240	240	9	51	mm	240	359	410
Frame#	Time	Sternum			R.Acromium			L.Acromium			Top.Head			R.ASIS			L.ASIS			R.PSIS			L.PSIS			R.Great.Tro			L.Great.Tro			R.Iliac.Crest			L.Iliac.Crest			V.Sacral			R.Thigh.Upper.Post			R.Thigh.Lower.Ant			R.Thigh.Lower.Post			R.Thigh.Upper.Ant			R.Knee.Lat			R.Knee.Med			R.Shank.Upper.Post			R.Shank.Lower.Ant			R.Shank.Lower.Post			R.Shank.Upper.Ant			R.Ankle.Lat			R.Ankle.Med			R.Heel.Upper			R.Heel.Med			R.Heel.Lat			R.Toe.Lat			R.Toe.Med			R.Toe.Tip			L.Thigh.Upper.Post			L.Thigh.Lower.Ant			L.Thigh.Lower.Post			L.Thigh.Upper.Ant			L.Knee.Lat			L.Knee.Med			L.Shank.Upper.Post			L.Shank.Lower.Ant			L.Shank.Lower.Post			L.Shank.Upper.Ant			L.Ankle.Lat			L.Ankle.Med			L.Heel.Upper			L.Heel.Med			L.Heel.Lat			L.Toe.Lat			L.Toe.Med			L.Toe.Tip			Cervical.Spine			Back			
		X1	Y1	Z1	X2	Y2	Z2	X3	Y3	Z3	X4	Y4	Z4	X5	Y5	Z5	X6	Y6	Z6	X7	Y7	Z7	X8	Y8	Z8	X9	Y9	Z9	X10	Y10	Z10	X11	Y11	Z11	X12	Y12	Z12	X13	Y13	Z13	X14	Y14	Z14	X15	Y15	Z15	X16	Y16	Z16	X17	Y17	Z17	X18	Y18	Z18	X19	Y19	Z19	X20	Y20	Z20	X21	Y21	Z21	X22	Y22	Z22	X23	Y23	Z23	X24	Y24	Z24	X25	Y25	Z25	X26	Y26	Z26	X27	Y27	Z27	X28	Y28	Z28	X29	Y29	Z29	X30	Y30	Z30	X31	Y31	Z31	X32	Y32	Z32	X33	Y33	Z33	X34	Y34	Z34	X35	Y35	Z35	X36	Y36	Z36	X37	Y37	Z37	X38	Y38	Z38	X39	Y39	Z39	X40	Y40	Z40	X41	Y41	Z41	X42	Y42	Z42	X43	Y43	Z43	X44	Y44	Z44	X45	Y45	Z45	X46	Y46	Z46	X47	Y47	Z47	X48	Y48	Z48	X49	Y49	Z49	X50	Y50	Z50	X51	Y51	Z51	

359	1.4917	515.53	1098.3	321.3	405.58	1339.5	454.23	430.84	1335.2	162.23	460	1623.5	321.99	481.03	938.33	416.34	482.7	916.04	208.99	270.84	970.42	372.1	262.37	973.58	298.77	426.9	816.09	521.12	348.58	825.28	128.7	380.28	980.59	480.61	359.65	969.15	150.16	240.56	924.03	331.62	496.87	628.19	515.09	576.78	574.07	482.09	513.74	540.81	496.6	555.31	660.1	496.81	554.6	475.97	481.74	565.52	463.33	338.34	528.75	260.69	458.35	622.48	203.66	460.29	556.6	193.18	453.37	599.49	268.54	472.9	601.88	106.57	448.72	623.66	126.74	371.04	560.4	76.629	380.58	587.49	51.116	356.02	563.92	44.066	415.31	707.33	72.681	492.69	761.26	84.36	398.17	785.87	119.74	462.59	279.44	619.27	168.04	339.87	527.14	173.13	263.29	532.83	192.71	349.29	619.33	149.49	308.43	450.57	187.07	306.45	453.06	326.23	197.47	295.55	196.5	252.55	199.61	215.44	184.29	224.8	215.79	259.17	273.67	196.4	192.39	105.67	235.13	202.87	102.97	314.51	130.19	73.386	265.86	137.04	46.872	299.3	135.74	45.889	237.59	302.07	34.459	212.55	320.97	44.539	322.86	382.83	57.127	277.74	345.77	1399.4	303.24	261.1	1153	303.74
360	1.4958	520.67	1097	321.6	410.57	1338.3	454.57	436.24	1334	162.65	465.27	1622.3	322.58	486.65	937.1	416.59	487.79	914.84	209.19	276.29	969.18	372.74	267.6	972.42	299.45	432.9	814.65	521.2	353.06	824.76	129.01	385.9	979.35	481.04	364.61	968.03	150.57	245.91	922.81	332.29	502.71	626.79	514.65	581.92	572.35	480.57	519.07	539.3	496.28	560.86	658.5	495.24	559.85	474.65	481.09	569.24	461.51	337.14	539.19	258.9	458.36	634.54	204.36	460.38	568.86	192.13	453.49	609.85	268.7	472.91	616.59	106.44	448.98	637.53	127	371.29	575.72	75.053	381.13	603.39	50.214	356.54	580.19	42.724	415.89	723.11	75.437	492.76	776.45	88.242	398.09	800.3	124.5	462.29	283.08	619.18	168.18	342.92	526.67	173.31	266.37	532.85	192.87	352.92	618.8	149.66	310.94	450.21	187.19	308.71	452.81	326.37	198.98	295.83	196.51	253.46	199.57	215.52	185.39	225.22	215.75	260.57	273.58	196.47	192.65	105.94	235.2	203.11	103.2	314.66	130.3	73.641	265.9	137.11	47.111	299.34	135.8	46.142	237.62	302.1	34.428	212.56	321.02	44.476	322.86	382.92	56.981	277.73	350.98	1398.3	303.56	266.27	1151.9	303.91
361	1.5	525.84	1095.6	321.91	415.59	1337	454.94	441.63	1332.9	163.1	470.55	1621.1	323.18	492.29	935.82	416.84	492.9	913.62	209.39	281.75	967.91	373.39	272.86	971.23	300.14	438.92	813.14	521.25	357.58	824.21	129.33	391.54	978.06	481.49	369.59	966.89	150.98	251.28	921.56	332.97	508.56	625.37	514.24	587.07	570.63	479.07	524.43	537.78	495.98	566.4	656.89	493.68	565.13	473.32	480.49	572.94	459.64	335.99	549.45	257.22	458.37	646.29	205.09	460.41	580.84	191.2	453.58	620	268.88	472.89	630.9	106.45	449.17	650.99	127.38	371.46	590.62	73.667	381.62	618.82	49.497	356.98	596.02	41.585	416.4	738.43	78.23	492.69	791.11	92.125	397.84	814.25	129.21	461.81	286.82	619.03	168.31	346.09	526.17	173.49	269.57	532.81	193.04	356.66	618.22	149.83	313.59	449.82	187.33	311.1	452.54	326.51	200.59	296.11	196.52	254.43	199.53	215.6	186.55	225.63	215.72	262.04	273.47	196.55	192.93	106.23	235.26	203.36	103.45	314.79	130.42	73.915	265.94	137.17	47.371	299.38	135.85	46.409	237.64	302.12	34.395	212.56	321.08	44.412	322.86	383.01	56.83	277.71	356.2	1397.2	303.92	271.45	1150.8	304.11
362	1.5042	531.03	1094.2	322.23	420.65	1335.7	455.33	447.02	1331.7	163.58	475.84	1619.8	323.79	497.95	934.51	417.07	498.03	912.38	209.57	287.22	966.61	374.04	278.14	970.03	300.84	444.95	811.58	521.28	362.14	823.61	129.65	397.21	976.73	481.95	374.58	965.72	151.39	256.65	920.3	333.65	514.44	623.94	513.84	592.26	568.9	477.61	529.83	536.25	495.7	571.95	655.28	492.16	570.46	471.99	479.96	576.64	457.73	334.9	559.49	255.65	458.41	657.72	205.84	460.38	592.51	190.37	453.65	629.92	269.08	472.85	644.79	106.56	449.27	664	127.84	371.54	605.04	72.451	382.06	633.73	48.94	357.34	611.37	40.624	416.83	753.26	81.014	492.47	805.21	95.961	397.41	827.7	133.82	461.15	290.66	618.83	168.45	349.37	525.62	173.69	272.9	532.72	193.21	360.5	617.6	150.01	316.35	449.39	187.47	313.61	452.24	326.66	202.28	296.38	196.51	255.44	199.46	215.67	187.77	226.04	215.68	263.59	273.34	196.63	193.22	106.54	235.3	203.62	103.72	314.92	130.54	74.211	265.95	137.24	47.658	299.41	135.91	46.694	237.65	302.15	34.36	212.57	321.13	44.349	322.86	383.11	56.674	277.7	361.43	1396	304.31	276.64	1149.7	304.35
363	1.5083	536.24	1092.8	322.56	425.73	1334.3	455.75	452.39	1330.4	164.07	481.12	1618.6	324.42	503.63	933.17	417.3	503.18	911.13	209.73	292.7	965.29	374.72	283.43	968.81	301.56	451	809.96	521.29	366.74	822.98	129.97	402.91	975.35	482.43	379.58	964.53	151.8	262.04	919.02	334.34	520.35	622.52	513.46	597.48	567.2	476.18	535.29	534.74	495.43	577.52	653.69	490.67	575.84	470.68	479.47	580.36	455.82	333.87	569.32	254.19	458.46	668.82	206.57	460.29	603.86	189.63	453.69	639.6	269.27	472.77	658.23	106.74	449.29	676.54	128.35	371.54	618.96	71.383	382.44	648.07	48.513	357.62	626.18	39.814	417.18	767.57	83.744	492.08	818.73	99.699	396.81	840.63	138.26	460.31	294.6	618.57	168.57	352.78	525.03	173.89	276.34	532.57	193.38	364.45	616.94	150.19	319.25	448.92	187.62	316.26	451.9	326.82	204.07	296.67	196.5	256.51	199.39	215.74	189.05	226.45	215.64	265.23	273.19	196.71	193.54	106.88	235.33	203.9	104	315.02	130.67	74.533	265.96	137.3	47.976	299.43	135.97	46.999	237.64	302.18	34.324	212.58	321.19	44.287	322.86	383.2	56.514	277.69	366.66	1394.8	304.73	281.85	1148.5	304.62
364	1.5125	541.49	1091.3	322.9	430.84	1332.9	456.2	457.75	1329.1	164.58	486.42	1617.3	325.06	509.31	931.81	417.53	508.35	909.87	209.88	298.19	963.96	375.4	288.74	967.58	302.29	457.06	808.3	521.26	371.39	822.3	130.29	408.62	973.94	482.91	384.58	963.32	152.21	267.42	917.73	335.03	526.3	621.11	513.1	602.77	565.55	474.8	540.82	533.24	495.16	583.12	652.13	489.23	581.31	469.39	479.03	584.14	453.92	332.91	578.92	252.82	458.51	679.56	207.26	460.12	614.86	188.95	453.68	649.04	269.44	472.65	671.17	106.97	449.23	688.57	128.89	371.44	632.32	70.44	382.74	661.81	48.186	357.81	640.41	39.128	417.45	781.33	86.373	491.54	831.65	103.29	396.01	853.02	142.5	459.28	298.65	618.26	168.7	356.3	524.4	174.09	279.9	532.37	193.55	368.49	616.24	150.38	322.28	448.41	187.78	319.06	451.53	326.98	205.96	296.95	196.48	257.64	199.3	215.81	190.4	226.87	215.59	266.95	273.02	196.78	193.87	107.23	235.34	204.19	104.3	315.12	130.81	74.886	265.95	137.37	48.331	299.44	136.03	47.329	237.63	302.21	34.285	212.59	321.25	44.226	322.85	383.31	56.348	277.68	371.9	1393.6	305.17	287.07	1147.2	304.92
365	1.5167	546.75	1089.8	323.26	435.98	1331.5	456.68	463.1	1327.8	165.11	491.72	1616	325.71	515.01	930.42	417.74	513.53	908.61	210	303.68	962.61	376.11	294.07	966.34	303.04	463.14	806.62	521.22	376.09	821.59	130.61	414.36	972.51	483.41	389.59	962.1	152.62	272.82	916.44	335.74	532.29	619.72	512.74	608.13	563.94	473.46	546.43	531.77	494.89	588.75	650.62	487.84	586.88	468.14	478.62	587.99	452.04	332.02	588.26	251.53	458.57	689.94	207.9	459.87	625.48	188.33	453.64	658.22	269.58	472.48	683.59	107.21	449.07	700.07	129.41	371.25	645.09	69.599	382.98	674.9	47.93	357.91	654.03	38.539	417.64	794.51	88.856	490.83	843.93	106.68	395.03	864.87	146.47	458.07	302.79	617.89	168.82	359.94	523.73	174.3	283.58	532.11	193.73	372.63	615.51	150.56	325.43	447.86	187.95	322	451.11	327.13	207.95	297.24	196.46	258.83	199.2	215.86	191.81	227.29	215.55	268.75	272.84	196.86	194.22	107.61	235.33	204.49	104.62	315.19	130.96	75.274	265.92	137.45	48.727	299.44	136.09	47.688	237.6	302.25	34.244	212.6	321.3	44.168	322.85	383.41	56.178	277.67	377.14	1392.4	305.66	292.3	1146	305.26
366	1.5208	552.05	1088.3	323.62	441.16	1330.1	457.18	468.44	1326.5	165.67	497.02	1614.7	326.37	520.71	929.01	417.94	518.74	907.35	210.1	309.18	961.25	376.83	299.41	965.09	303.8	469.23	804.92	521.16	380.85	820.83	130.93	420.12	971.04	483.92	394.6	960.86	153.03	278.22	915.15	336.45	538.33	618.37	512.39	613.58	562.41	472.18	552.14	530.35	494.6	594.43	649.17	486.52	592.56	466.94	478.23	591.94	450.21	331.21	597.34	250.32	458.62	699.93	208.45	459.54	635.71	187.74	453.56	667.14	269.66	472.26	695.46	107.44	448.83	711.02	129.89	370.97	657.23	68.838	383.15	687.3	47.715	357.92	666.99	38.02	417.75	807.09	91.147	489.96	855.56	109.82	393.86	876.15	150.13	456.66	307.03	617.48	168.95	363.7	523.03	174.5	287.37	531.8	193.9	376.87	614.74	150.75	328.71	447.27	188.12	325.1	450.65	327.29	210.03	297.53	196.43	260.06	199.1	215.91	193.3	227.72	215.5	270.63	272.64	196.94	194.6	108.02	235.3	204.81	104.96	315.25	131.12	75.705	265.87	137.53	49.171	299.43	136.17	48.081	237.56	302.29	34.201	212.61	321.36	44.111	322.84	383.53	56.001	277.66	382.39	1391.1	306.17	297.54	1144.7	305.63
367	1.525	557.37	1086.7	323.99	446.36	1328.7	457.72	473.77	1325.1	166.24	502.33	1613.4	327.05	526.42	927.58	418.14	523.96	906.08	210.19	314.68	959.89	377.56	304.77	963.84	304.57	475.35	803.21	521.08	385.67	820.04	131.25	425.89	969.56	484.45	399.61	959.61	153.44	283.62	913.85	337.17	544.43	617.06	512.05	619.13	560.97	470.94	557.96	528.98	494.31	600.17	647.79	485.27	598.36	465.79	477.86	596.02	448.44	330.46	606.15	249.18	458.66	709.53	208.89	459.13	645.54	187.17	453.43	675.79	269.68	471.97	706.76	107.64	448.49	721.4	130.3	370.58	668.71	68.133	383.24	698.99	47.511	357.84	679.26	37.544	417.77	819.05	93.204	488.93	866.52	112.66	392.5	886.86	153.43	455.08	311.36	617.02	169.08	367.57	522.29	174.71	291.28	531.44	194.08	381.2	613.94	150.94	332.12	446.65	188.29	328.36	450.14	327.44	212.21	297.83	196.4	261.36	198.99	215.95	194.85	228.16	215.44	272.6	272.43	197.01	195.01	108.46	235.26	205.15	105.34	315.29	131.29	76.183	265.8	137.61	49.669	299.41	136.25	48.512	237.51	302.33	34.155	212.62	321.42	44.057	322.83	383.64	55.82	277.65	387.65	1389.9	306.71	302.8	1143.4	306.04
